<svg id='circle-letter-d_24' width='24' height='24' viewBox='0 0 24 24' xmlns='http://www.w3.org/2000/svg' xmlns:xlink='http://www.w3.org/1999/xlink'><rect width='24' height='24' stroke='none' fill='#000000' opacity='0'/>
    <g transform="matrix(1 0 0 1 12 12)" >
        <g>
            <g transform="matrix(1 0 0 1 0 0)" >
                <path style="stroke: none; stroke-width: 2; stroke-dasharray: none; stroke-linecap: round; stroke-dashoffset: 0; stroke-linejoin: round; stroke-miterlimit: 4; fill: none; fill-rule: nonzero; opacity: 1;" transform=" translate(-12, -12)" d="M 0 0 L 24 0 L 24 24 L 0 24 z" stroke-linecap="round" />
            </g>
            <g transform="matrix(1 0 0 1 0 0)" >
                <circle style="stroke: rgb(250,204,21); stroke-width: 2; stroke-dasharray: none; stroke-linecap: round; stroke-dashoffset: 0; stroke-linejoin: round; stroke-miterlimit: 4; fill: none; fill-rule: nonzero; opacity: 1;" cx="0" cy="0" r="9" />
            </g>
            <g transform="matrix(1 0 0 1 0 0)" >
                <path style="stroke: rgb(250,204,21); stroke-width: 2; stroke-dasharray: none; stroke-linecap: round; stroke-dashoffset: 0; stroke-linejoin: round; stroke-miterlimit: 4; fill: none; fill-rule: nonzero; opacity: 1;" transform=" translate(-12, -12)" d="M 10 8 L 10 16 L 12 16 C 13.104569499661586 16 14 15.104569499661586 14 14 L 14 10 C 14 8.895430500338414 13.104569499661586 8 12 8 L 10 8 z" stroke-linecap="round" />
            </g>
        </g>
    </g>
</svg>